<mxfile host="app.diagrams.net" modified="2023-05-24T07:28:00.995Z" agent="Mozilla/5.0 (Windows NT 10.0; Win64; x64) AppleWebKit/537.36 (KHTML, like Gecko) Chrome/112.0.0.0 Safari/537.36 Edg/112.0.1722.46" etag="-ELIlHvCrY64zKANMDcp" version="21.3.0" type="github">
  <diagram name="第 1 页" id="o90v1oV5kcfM9ihSEkNn">
    <mxGraphModel dx="1444" dy="805" grid="0" gridSize="10" guides="1" tooltips="1" connect="1" arrows="1" fold="1" page="1" pageScale="1" pageWidth="827" pageHeight="1169" math="0" shadow="0">
      <root>
        <mxCell id="0" />
        <mxCell id="1" parent="0" />
        <mxCell id="T8VvHmWyisNZIxb9v9QL-16" value="&lt;font color=&quot;#ffffff&quot; style=&quot;font-size: 18px;&quot;&gt;硬件&lt;/font&gt;" style="shape=cube;whiteSpace=wrap;html=1;boundedLbl=1;backgroundOutline=1;darkOpacity=0.05;darkOpacity2=0.1;direction=south;fillColor=#134de6;" vertex="1" parent="1">
          <mxGeometry x="230" y="600" width="270" height="75" as="geometry" />
        </mxCell>
        <mxCell id="T8VvHmWyisNZIxb9v9QL-17" value="&lt;font color=&quot;#ffffff&quot; style=&quot;font-size: 18px;&quot;&gt;软件&lt;/font&gt;" style="shape=cube;whiteSpace=wrap;html=1;boundedLbl=1;backgroundOutline=1;darkOpacity=0.05;darkOpacity2=0.1;direction=south;fillColor=#134de6;" vertex="1" parent="1">
          <mxGeometry x="480" y="600" width="259" height="75" as="geometry" />
        </mxCell>
        <mxCell id="T8VvHmWyisNZIxb9v9QL-18" value="&lt;font color=&quot;#ffffff&quot; style=&quot;font-size: 18px;&quot;&gt;网络&lt;/font&gt;" style="shape=cube;whiteSpace=wrap;html=1;boundedLbl=1;backgroundOutline=1;darkOpacity=0.05;darkOpacity2=0.1;direction=south;fillColor=#134de6;" vertex="1" parent="1">
          <mxGeometry x="710" y="600" width="260" height="75" as="geometry" />
        </mxCell>
        <mxCell id="T8VvHmWyisNZIxb9v9QL-1" value="&lt;font color=&quot;#ffffff&quot; style=&quot;font-size: 24px;&quot;&gt;应用服务平台&lt;/font&gt;" style="shape=cube;whiteSpace=wrap;html=1;boundedLbl=1;backgroundOutline=1;darkOpacity=0.05;darkOpacity2=0.1;direction=south;fillColor=#6c8662;" vertex="1" parent="1">
          <mxGeometry x="230" y="270" width="740" height="80" as="geometry" />
        </mxCell>
        <mxCell id="T8VvHmWyisNZIxb9v9QL-3" value="&lt;font style=&quot;font-size: 18px;&quot;&gt;登陆注册模块&lt;/font&gt;" style="shape=cube;whiteSpace=wrap;html=1;boundedLbl=1;backgroundOutline=1;darkOpacity=0.05;darkOpacity2=0.1;direction=south;fillColor=#199619;fontColor=#FFFFFF;" vertex="1" parent="1">
          <mxGeometry x="231" y="210" width="140" height="80" as="geometry" />
        </mxCell>
        <mxCell id="T8VvHmWyisNZIxb9v9QL-4" value="&lt;font style=&quot;font-size: 18px;&quot;&gt;报名模块&lt;/font&gt;" style="shape=cube;whiteSpace=wrap;html=1;boundedLbl=1;backgroundOutline=1;darkOpacity=0.05;darkOpacity2=0.1;direction=south;fillColor=#199619;fontColor=#FFFFFF;" vertex="1" parent="1">
          <mxGeometry x="351" y="210" width="140" height="80" as="geometry" />
        </mxCell>
        <mxCell id="T8VvHmWyisNZIxb9v9QL-5" value="&lt;font style=&quot;font-size: 18px;&quot;&gt;预约培训模块&lt;/font&gt;" style="shape=cube;whiteSpace=wrap;html=1;boundedLbl=1;backgroundOutline=1;darkOpacity=0.05;darkOpacity2=0.1;direction=south;fillColor=#199619;fontColor=#FFFFFF;" vertex="1" parent="1">
          <mxGeometry x="471" y="210" width="140" height="80" as="geometry" />
        </mxCell>
        <mxCell id="T8VvHmWyisNZIxb9v9QL-6" value="&lt;font style=&quot;font-size: 18px;&quot;&gt;考试学习模块&lt;/font&gt;" style="shape=cube;whiteSpace=wrap;html=1;boundedLbl=1;backgroundOutline=1;darkOpacity=0.05;darkOpacity2=0.1;direction=south;fillColor=#199619;fontColor=#FFFFFF;" vertex="1" parent="1">
          <mxGeometry x="591" y="210" width="140" height="80" as="geometry" />
        </mxCell>
        <mxCell id="T8VvHmWyisNZIxb9v9QL-7" value="&lt;font style=&quot;font-size: 18px;&quot;&gt;个人信息模块&lt;/font&gt;" style="shape=cube;whiteSpace=wrap;html=1;boundedLbl=1;backgroundOutline=1;darkOpacity=0.05;darkOpacity2=0.1;direction=south;fillColor=#199619;fontColor=#FFFFFF;" vertex="1" parent="1">
          <mxGeometry x="710" y="210" width="140" height="80" as="geometry" />
        </mxCell>
        <mxCell id="T8VvHmWyisNZIxb9v9QL-8" value="&lt;font style=&quot;font-size: 18px;&quot;&gt;统计分析模块&lt;/font&gt;" style="shape=cube;whiteSpace=wrap;html=1;boundedLbl=1;backgroundOutline=1;darkOpacity=0.05;darkOpacity2=0.1;direction=south;fillColor=#199619;fontColor=#FFFFFF;" vertex="1" parent="1">
          <mxGeometry x="827" y="210" width="143" height="80" as="geometry" />
        </mxCell>
        <mxCell id="T8VvHmWyisNZIxb9v9QL-9" value="&lt;font color=&quot;#ffffff&quot; style=&quot;font-size: 24px;&quot;&gt;数据库MySQL&lt;/font&gt;" style="shape=cylinder3;whiteSpace=wrap;html=1;boundedLbl=1;backgroundOutline=1;size=15;fillColor=#836f94;" vertex="1" parent="1">
          <mxGeometry x="425" y="400" width="350" height="100" as="geometry" />
        </mxCell>
        <mxCell id="T8VvHmWyisNZIxb9v9QL-10" value="&lt;font color=&quot;#ffffff&quot; style=&quot;font-size: 18px;&quot;&gt;文件传输&amp;nbsp;&lt;/font&gt;" style="shape=cube;whiteSpace=wrap;html=1;boundedLbl=1;backgroundOutline=1;darkOpacity=0.05;darkOpacity2=0.1;direction=south;fillColor=#31a1d9;" vertex="1" parent="1">
          <mxGeometry x="230" y="545" width="270" height="75" as="geometry" />
        </mxCell>
        <mxCell id="T8VvHmWyisNZIxb9v9QL-14" value="&lt;font color=&quot;#ffffff&quot; style=&quot;font-size: 18px;&quot;&gt;SOAP&amp;nbsp;WSDL&amp;nbsp;UDDI XML&lt;/font&gt;" style="shape=cube;whiteSpace=wrap;html=1;boundedLbl=1;backgroundOutline=1;darkOpacity=0.05;darkOpacity2=0.1;direction=south;fillColor=#31a1d9;" vertex="1" parent="1">
          <mxGeometry x="479" y="545" width="252" height="75" as="geometry" />
        </mxCell>
        <mxCell id="T8VvHmWyisNZIxb9v9QL-15" value="&lt;font color=&quot;#ffffff&quot; style=&quot;font-size: 18px;&quot;&gt;网络安全网络管理&lt;/font&gt;" style="shape=cube;whiteSpace=wrap;html=1;boundedLbl=1;backgroundOutline=1;darkOpacity=0.05;darkOpacity2=0.1;direction=south;fillColor=#31a1d9;" vertex="1" parent="1">
          <mxGeometry x="710" y="545" width="260" height="75" as="geometry" />
        </mxCell>
        <mxCell id="T8VvHmWyisNZIxb9v9QL-19" value="&lt;font style=&quot;font-size: 18px;&quot;&gt;登陆注册功能&lt;/font&gt;" style="shape=cube;whiteSpace=wrap;html=1;boundedLbl=1;backgroundOutline=1;darkOpacity=0.05;darkOpacity2=0.1;direction=south;fillColor=#aedbe1;" vertex="1" parent="1">
          <mxGeometry x="231" y="151" width="140" height="80" as="geometry" />
        </mxCell>
        <mxCell id="T8VvHmWyisNZIxb9v9QL-20" value="&lt;font style=&quot;font-size: 18px;&quot;&gt;报名功能&lt;/font&gt;" style="shape=cube;whiteSpace=wrap;html=1;boundedLbl=1;backgroundOutline=1;darkOpacity=0.05;darkOpacity2=0.1;direction=south;fillColor=#95c2c8;" vertex="1" parent="1">
          <mxGeometry x="351" y="151" width="140" height="80" as="geometry" />
        </mxCell>
        <mxCell id="T8VvHmWyisNZIxb9v9QL-21" value="&lt;font style=&quot;font-size: 18px;&quot;&gt;预约培训功能&lt;/font&gt;" style="shape=cube;whiteSpace=wrap;html=1;boundedLbl=1;backgroundOutline=1;darkOpacity=0.05;darkOpacity2=0.1;direction=south;fillColor=#95c2c8;" vertex="1" parent="1">
          <mxGeometry x="471" y="151" width="140" height="80" as="geometry" />
        </mxCell>
        <mxCell id="T8VvHmWyisNZIxb9v9QL-22" value="&lt;font style=&quot;font-size: 18px;&quot;&gt;考试学习功能&lt;/font&gt;" style="shape=cube;whiteSpace=wrap;html=1;boundedLbl=1;backgroundOutline=1;darkOpacity=0.05;darkOpacity2=0.1;direction=south;fillColor=#73979b;" vertex="1" parent="1">
          <mxGeometry x="591" y="151" width="140" height="80" as="geometry" />
        </mxCell>
        <mxCell id="T8VvHmWyisNZIxb9v9QL-23" value="&lt;font style=&quot;font-size: 18px;&quot;&gt;个人信息功能&lt;/font&gt;" style="shape=cube;whiteSpace=wrap;html=1;boundedLbl=1;backgroundOutline=1;darkOpacity=0.05;darkOpacity2=0.1;direction=south;fillColor=#ccafd1;" vertex="1" parent="1">
          <mxGeometry x="710" y="151" width="140" height="80" as="geometry" />
        </mxCell>
        <mxCell id="T8VvHmWyisNZIxb9v9QL-24" value="&lt;font style=&quot;font-size: 18px;&quot;&gt;统计分析功能&lt;/font&gt;" style="shape=cube;whiteSpace=wrap;html=1;boundedLbl=1;backgroundOutline=1;darkOpacity=0.05;darkOpacity2=0.1;direction=south;fillColor=#c09bc6;" vertex="1" parent="1">
          <mxGeometry x="827" y="151" width="143" height="80" as="geometry" />
        </mxCell>
        <mxCell id="T8VvHmWyisNZIxb9v9QL-25" value="&lt;font style=&quot;font-size: 18px;&quot;&gt;业务功能&lt;/font&gt;" style="rounded=0;whiteSpace=wrap;html=1;fillColor=#f4f2eb;" vertex="1" parent="1">
          <mxGeometry x="999" y="161" width="130" height="39" as="geometry" />
        </mxCell>
        <mxCell id="T8VvHmWyisNZIxb9v9QL-26" value="&lt;font style=&quot;font-size: 18px;&quot;&gt;子系统&lt;/font&gt;" style="rounded=0;whiteSpace=wrap;html=1;fillColor=#f4f2eb;" vertex="1" parent="1">
          <mxGeometry x="999" y="230.5" width="130" height="39" as="geometry" />
        </mxCell>
        <mxCell id="T8VvHmWyisNZIxb9v9QL-27" value="&lt;font style=&quot;font-size: 18px;&quot;&gt;应用平台&lt;/font&gt;" style="rounded=0;whiteSpace=wrap;html=1;fillColor=#f4f2eb;" vertex="1" parent="1">
          <mxGeometry x="999" y="300" width="130" height="39" as="geometry" />
        </mxCell>
        <mxCell id="T8VvHmWyisNZIxb9v9QL-28" value="&lt;font style=&quot;font-size: 18px;&quot;&gt;共享数据库&lt;/font&gt;" style="rounded=0;whiteSpace=wrap;html=1;fillColor=#f4f2eb;" vertex="1" parent="1">
          <mxGeometry x="80" y="430.5" width="130" height="39" as="geometry" />
        </mxCell>
        <mxCell id="T8VvHmWyisNZIxb9v9QL-29" value="&lt;font style=&quot;font-size: 18px;&quot;&gt;网络基础服务&lt;/font&gt;" style="rounded=0;whiteSpace=wrap;html=1;fillColor=#f4f2eb;" vertex="1" parent="1">
          <mxGeometry x="80" y="569.5" width="130" height="39" as="geometry" />
        </mxCell>
        <mxCell id="T8VvHmWyisNZIxb9v9QL-30" value="&lt;font style=&quot;font-size: 18px;&quot;&gt;网络设施&lt;/font&gt;" style="rounded=0;whiteSpace=wrap;html=1;fillColor=#f4f2eb;" vertex="1" parent="1">
          <mxGeometry x="80" y="639" width="130" height="39" as="geometry" />
        </mxCell>
      </root>
    </mxGraphModel>
  </diagram>
</mxfile>
